<svg width="2391" height="633" viewBox="0 0 2391 633" fill="none" xmlns="http://www.w3.org/2000/svg">
<path fill-rule="evenodd" clip-rule="evenodd" d="M1228.6 119.086C1240.39 102.912 1261.34 85.3167 1289.41 87.5711C1283.86 94.8836 1278.63 115.239 1278.63 115.239C1278.63 115.239 1259.16 119.739 1240.71 134.298C1249.74 148.497 1254.97 165.348 1254.97 183.42C1254.97 234.049 1213.93 275.091 1163.29 275.091C1150.26 275.091 1137.87 272.373 1126.65 267.473C1103.27 264.812 1097.5 288.543 1116.88 295.562C1144.62 302.167 1167.92 302.689 1188.43 303.149C1205.58 303.533 1220.78 303.874 1235 307.688C1301.31 325.472 1299.62 400.688 1226.97 417.25C1137.33 429.919 1075.55 374.5 1064.12 339.188C1117.69 370.562 1163.5 377.688 1186.5 380.062C1235 385.071 1259 359.938 1226.97 347.125C1213.42 341.707 1195.62 341.452 1176.34 341.177H1176.34C1150.04 340.8 1121.01 340.385 1096.38 326.75C1053.69 303.125 1071.62 257.125 1103.27 252.715C1083.88 235.906 1071.62 211.096 1071.62 183.42C1071.62 132.792 1112.66 91.75 1163.29 91.75C1188.86 91.75 1211.98 102.211 1228.6 119.086ZM1209.12 183.312C1209.12 212.687 1188.42 236.5 1162.88 236.5C1137.33 236.5 1116.62 212.687 1116.62 183.312C1116.62 153.938 1137.33 130.125 1162.88 130.125C1188.42 130.125 1209.12 153.938 1209.12 183.312Z" fill="white"/>
<path d="M811.75 157.144C810.35 108.244 787.125 101.457 774.938 92.1441C809.562 80.6441 859.75 89.3941 862 138.207V157.082C870.188 128.67 896.25 95.4487 946.938 102.608C966.454 105.365 1000.38 133.233 1002 170.358V277.44C1002 295.315 1002 313.44 1027.5 342.44C982.25 341.54 951.75 311.94 951.75 277.44V195.983C949.45 159.383 926.146 149.025 914.812 148.42C884.188 148.42 863.312 175.983 862 197.332V277.394C862 295.269 862 313.394 887.5 342.394C842.25 341.494 811.75 311.894 811.75 277.394V157.144Z" fill="white"/>
<path d="M1773.88 157.144C1772.47 108.244 1749.31 101.457 1737.12 92.1441C1771.75 80.6441 1821.94 89.3941 1824.19 138.207V157.082C1832.38 128.67 1858.44 95.4487 1909.12 102.608C1928.64 105.365 1962.5 133.233 1964.12 170.358V277.44C1964.12 295.315 1964.19 313.44 1989.69 342.44C1944.44 341.54 1913.88 311.94 1913.88 277.44V195.983C1911.57 159.383 1888.33 149.025 1877 148.42C1846.38 148.42 1825.44 175.983 1824.12 197.332V277.394C1824.12 295.269 1824.19 313.394 1849.69 342.394C1804.44 341.494 1773.88 311.894 1773.88 277.394V157.144Z" fill="white"/>
<path d="M316 157.349C314.601 108.449 291.493 101.661 279.312 92.3486C313.917 80.8487 364.001 89.5987 366.25 138.411V175.661C375.744 147.286 421.042 81.9111 491.875 87.5987C482.006 100.599 472.699 136.786 472.699 136.786C472.699 136.786 401.042 153.349 366.25 215.911V277.474C366.25 295.349 366.324 313.474 391.809 342.474C346.585 341.574 316 311.974 316 277.474V157.349Z" fill="white"/>
<path d="M1382 447.144C1380.6 398.244 1357.44 391.457 1345.25 382.144C1379.88 370.644 1430.06 379.394 1432.31 428.207V567.519C1432.31 585.394 1432.31 603.519 1457.81 632.519C1412.56 631.619 1382 602.019 1382 567.519V447.144Z" fill="white"/>
<path d="M1494.56 447.144C1493.16 398.244 1470 391.457 1457.81 382.144C1492.44 370.644 1542.62 379.394 1544.88 428.207V567.519C1544.88 585.394 1544.88 603.519 1570.38 632.519C1525.12 631.619 1494.56 602.019 1494.56 567.519V447.144Z" fill="white"/>
<path d="M1607.12 447.144C1605.72 398.244 1582.56 391.457 1570.38 382.144C1605 370.644 1655.19 379.394 1657.44 428.207V567.519C1657.44 585.394 1657.44 603.519 1682.94 632.519C1637.69 631.619 1607.12 602.019 1607.12 567.519V447.144Z" fill="white"/>
<path fill-rule="evenodd" clip-rule="evenodd" d="M2032.2 8.58608C2044.75 16.7209 2061.8 27.7767 2063 69.5191V72.875H2035.75C2009.88 72.875 1987.68 95.7968 1987 129.734C2008.75 110.609 2022.34 110.609 2035.75 110.609H2063V567.562C2063 602.062 2093.56 631.662 2138.81 632.562C2113.31 603.562 2113.25 585.437 2113.25 567.562V110.609H2140.23C2166.11 110.609 2188.31 87.6875 2188.98 53.75C2167.23 72.875 2153.64 72.875 2140.23 72.875H2113.25V50.5816C2111 1.76912 2060.87 -6.98085 2026.25 4.51907C2028.03 5.88218 2030.05 7.19119 2032.2 8.58608Z" fill="white"/>
<path fill-rule="evenodd" clip-rule="evenodd" d="M250 216.75V282.207C250 300.082 250.062 313.519 275.562 342.519C245.229 341.916 221.496 328.416 209.145 309.188C186.936 329.417 157.408 341.75 125 341.75C55.9644 341.75 0 285.786 0 216.75C0 147.714 55.9644 91.75 125 91.75C151.615 91.75 176.288 100.068 196.559 114.247C228.869 136.845 250 174.33 250 216.75ZM123.125 298.375C167.998 298.375 204.375 261.998 204.375 217.125C204.375 172.252 167.998 135.875 123.125 135.875C78.2519 135.875 41.875 172.252 41.875 217.125C41.875 261.998 78.2519 298.375 123.125 298.375Z" fill="white"/>
<path fill-rule="evenodd" clip-rule="evenodd" d="M1975.62 506.875V572.332C1975.62 590.207 1975.69 603.644 2001.19 632.644C1970.85 632.041 1947.12 618.541 1934.77 599.313C1912.56 619.542 1883.03 631.875 1850.62 631.875C1781.59 631.875 1725.62 575.911 1725.62 506.875C1725.62 437.839 1781.59 381.875 1850.62 381.875C1877.24 381.875 1901.91 390.193 1922.18 404.372C1954.49 426.97 1975.62 464.455 1975.62 506.875ZM1848.75 588.5C1893.62 588.5 1930 552.123 1930 507.25C1930 462.377 1893.62 426 1848.75 426C1803.88 426 1767.5 462.377 1767.5 507.25C1767.5 552.123 1803.88 588.5 1848.75 588.5Z" fill="white"/>
<path fill-rule="evenodd" clip-rule="evenodd" d="M745.625 216.75V282.207C745.625 300.082 745.688 313.519 771.188 342.519C740.854 341.916 717.121 328.416 704.77 309.188C682.561 329.417 653.033 341.75 620.625 341.75C551.589 341.75 495.625 285.786 495.625 216.75C495.625 147.714 551.589 91.75 620.625 91.75C647.24 91.75 671.913 100.068 692.184 114.247C724.494 136.845 745.625 174.33 745.625 216.75ZM618.75 298.375C663.623 298.375 700 261.998 700 217.125C700 172.252 663.623 135.875 618.75 135.875C573.877 135.875 537.5 172.252 537.5 217.125C537.5 261.998 573.877 298.375 618.75 298.375Z" fill="white"/>
<path d="M1336 116.875V317.375C1336 331.251 1347.25 342.5 1361.12 342.5C1375 342.5 1386.25 331.251 1386.25 317.375V210.549L1433.72 292.768C1434.66 294.457 1435.8 296.048 1437.14 297.5C1439.62 300.209 1442.62 302.286 1445.89 303.664C1448.82 304.897 1451.96 305.57 1455.15 305.638C1455.15 305.638 1462.73 304.917 1466.17 303.335C1468.85 302.103 1471.33 300.393 1473.47 298.244C1475.12 296.585 1476.51 294.722 1477.62 292.72L1564.64 142H1633C1660.61 142 1683 119.364 1683 91.75H1564.64H1550.12C1540.54 91.75 1532.21 97.1136 1527.98 105.002L1455.66 230.264L1382.87 104.282C1378.52 96.7891 1370.41 91.75 1361.12 91.75C1353.82 91.75 1347.24 94.8685 1342.65 99.847C1338.52 104.324 1336 110.305 1336 116.875Z" fill="#D24F4F"/>
<path d="M1683 192H1588.38C1574.5 192 1563.25 203.249 1563.25 217.125C1563.25 231.001 1574.5 242.25 1588.38 242.25H1633C1660.61 242.25 1683 219.614 1683 192Z" fill="#D24F4F"/>
<path d="M1683 292.25L1588.38 292.25C1574.5 292.25 1563.25 303.499 1563.25 317.375C1563.25 331.251 1574.5 342.5 1588.38 342.5H1633C1660.61 342.5 1683 319.864 1683 292.25Z" fill="#D24F4F"/>
<path d="M2251.45 393.064C2268.38 387.688 2284.12 386.719 2305.36 390.068C2305.36 390.068 2341.3 399.716 2340.38 414.75C2339.31 432 2320.54 446.189 2320.54 446.189C2312.98 433.688 2297 431.068 2275.06 431.068C2258.7 431.068 2240.02 440.625 2230.9 449.438C2224.26 455.858 2201.2 484.208 2207.56 507.991C2207.56 507.991 2279.55 506.62 2310.62 486.863C2338.2 469.326 2351.17 458.585 2363.53 422.001C2385.36 461.639 2362.53 515.011 2317.07 533.545C2285.91 546.248 2222.2 550.5 2222.2 550.5C2227.22 557.873 2233.54 565.263 2240.02 570.631C2246 575.584 2263.13 585.415 2275.06 588.068C2287 590.721 2306.73 590.362 2314.29 588.068C2329.47 583.462 2345.01 573.497 2354.15 563.943C2354.15 563.943 2369.95 544.821 2385.75 561.063C2398.71 574.376 2382.21 593.684 2382.21 593.684C2367.35 609.232 2348.73 620.682 2328.15 626.927C2307.58 633.173 2285.74 634.002 2264.75 629.336C2243.77 624.669 2224.33 614.664 2208.34 600.288C2192.34 585.912 2180.33 567.65 2173.45 547.269C2166.57 526.887 2165.06 505.074 2169.07 483.939C2173.07 462.803 2182.46 443.059 2196.33 426.615C2212.91 408.938 2233.78 397.751 2251.45 393.064Z" fill="#D24F4F"/>
</svg>
